<?xml version="1.0" encoding="UTF-8"?>
<!-- Generator: Adobe Illustrator 24.0.2, SVG Export Plug-In . SVG Version: 6.00 Build 0)  -->
<svg version="1.1" id="Vrstva_1" xmlns="http://www.w3.org/2000/svg" xmlns:xlink="http://www.w3.org/1999/xlink" x="0px" y="0px" viewBox="0 0 600 127.1" style="enable-background:new 0 0 600 127.1;" xml:space="preserve">
<style type="text/css">
	.st0{display:none;fill:#DCA16B;enable-background:new    ;}
	.st1{font-family:'Montserrat-Medium';}
	.st2{font-size:22px;}
	.st3{fill:#DCA16B;}
</style>
<text transform="matrix(1 0 0 1 353.4632 130.6854)" class="st0 st1 st2">Od kabelky po parfém</text>
<text transform="matrix(1 0 0 1 45.8394 40.0501)" class="st0 st1 st2">Od kabelky po parfém</text>
<g>
	<path class="st3" d="M117.2,88.4c0.7,6.6,5.4,10.9,11.3,10.9c12.5,0,31.1-12.9,31.1-33.4c0-6.7-5.4-14.5-14.8-13.4   c-0.8,0.1-1.3,1-0.8,1.8c8.7,13-2.6,35.6-11.5,40.6c-2.3,1.3-3.8-0.1-3.6-4.6c0.3-5.3,2.1-14.7,5.9-24.4   c3.8-9.6-10.7-10.5-14.4-0.1C117.6,74.3,116.6,81.8,117.2,88.4z"/>
	<path class="st3" d="M97.3,65.1c-2.5,6.7-4.4,15.5-4.4,23.7c0,9.4,9.6,12.4,16.9,6.8c1.4-1.1,0.8-2.8-0.6-2.4   c-1.5,0.3-3.2,0.3-3.2-3c0-6.8,2.4-16.9,5.4-24.3C115.6,56,100.9,55.6,97.3,65.1z"/>
	<path class="st3" d="M110.5,55c5.4,0,8.1-4.9,8.1-8c0-3.5-2.3-6.3-6.3-6.3c-5.3,0-8.4,4-8.4,8.1C103.9,52.7,108,55,110.5,55z"/>
	<path class="st3" d="M302.4,55c5.4,0,8.1-4.9,8.1-8c0-3.5-2.4-6.3-6.4-6.3c-5.3,0-8.4,4-8.4,8.1C295.8,52.7,299.9,55,302.4,55z"/>
	<path class="st3" d="M52.7,34.5c-1.1,1.2,0.2,2.7,1.7,1.8C69,27,79.1,33.2,79.1,47.6c0,19.3-13.1,39.1-26.1,46.2   c-1.8,1-4.3,0.9-3.5-2.3c3.9-15.6,10.6-48.2-7.8-61.5C9.6,6.4-27.5,58.1,30.1,86.8c1.6,0.8,2.7-1,1.2-2   c-40.9-26.9-19.6-54.9-4-48.6c14.9,6,17.2,29.2,14.1,54.1c-1,8.1,5.9,10.9,13.3,7.8C74.8,89.7,95,67.1,95,47.6   C95.1,21.4,68.3,17.1,52.7,34.5z"/>
	<path class="st3" d="M340.6,82.5c-0.5-4.6-5.1-14.5-6.8-19.7c-0.5-1.6-1.7-4.1,0.3-6.1c0.6-0.7,0.2-1.8-0.8-1.9   c-9.6-1-14.9,6.3-11.7,13.8c1.9,4.5,5.3,13,6.6,16.1c2.4,5.6,0.6,11.3-5,11.3c-5.3,0-8.7-4.5-5.3-14c3.4-9.4-8.6-9.9-10.8-1.8   c-3.1,11.6,3.4,19.1,15.7,19.1C330.5,99.2,342,95.2,340.6,82.5z"/>
	<path class="st3" d="M276.6,95.6c1.4-1.1,0.8-2.8-0.6-2.4c-1.5,0.3-3.2,0.3-3.2-3c0-7.9,3-22,8.3-36c2.3-0.3,4.5-0.5,6.7-0.8   c3.4-0.4,2.5-3.4,0.1-3.4h-5.2c0.4-0.9,0.7-1.7,1.1-2.6c4.3-9.8-9.3-10.3-13-0.8c-0.5,1.3-1,2.7-1.5,4c-1.7,0.2-3.3,0.3-4.7,0.5   c-5.7,0.8-6,6.9,0,5.7c0.9-0.2,1.8-0.3,2.6-0.5C262.9,69,260,80.9,260,88.8C260,98.2,269.4,101.3,276.6,95.6z"/>
	<path class="st3" d="M221.5,93.5c0.6-2.3,1-4.8,1.5-6.8c2.6-9.8,8.5-14.9,12.9-17.2c3.5-1.7,3.9,0,3.1,2.4c-1.3,4-3,12.6-2.8,17   c0.2,6.5,4.2,9.5,9,9.5c3.8,0,7.2-2.4,7.9-3.1c1.1-1.2,0.6-2.5-1.2-2.1c-2,0.4-3.2-0.5-2.9-4c1-9.8,2.8-16.6,4-21.1   c2-7.3-1.1-12.4-9.2-10.3c-5.5,1.4-14.1,7.4-18.7,16.4c2.1-7.5,3.3-8.4,3.5-11c0.3-3.5-1.9-5.1-4.3-5.1c-5.6,0-8.7,4.2-10.3,10.1   c-1.8,6.7-4.1,15.6-4,23.3C210.2,100,219.8,100.8,221.5,93.5z"/>
	<path class="st3" d="M203.6,93.2c-1.5,0.3-3.5,0.3-3.2-3c0.5-6.7,1.7-13.3,3.7-20.3c2.5-9-3.1-11.6-7.8-12.3   c-23.9-3.2-36.1,17.5-34.9,31.1c0.5,6.2,5.2,10.5,10.8,10.5c5.4,0,11.7-3.4,15.1-11.4c-0.4,1.5-0.4,3.5,0.1,5.1   c1.8,5.7,10.6,7.6,16.8,2.7C205.6,94.5,205,92.8,203.6,93.2z M192.7,64.7c-1.4,6.3-3.2,11.2-4.8,15.3c-6.1,15.8-15.8,13.5-15.8,5.8   c0-10.7,7.6-23.9,19-23.2C192.8,62.6,193,63.4,192.7,64.7z"/>
	<path class="st3" d="M289.2,65.1c-2.5,6.7-4.4,15.5-4.4,23.7c0,9.4,9.7,12.4,16.9,6.8c1.4-1.1,0.8-2.8-0.6-2.4   c-1.5,0.3-3.2,0.3-3.2-3c0-6.8,2.3-16.9,5.4-24.3C307.5,56,292.8,55.6,289.2,65.1z"/>
</g>
<g>
	<path class="st3" d="M359.1,97.8c-1.3-0.7-2.2-1.6-2.9-2.8c-0.7-1.2-1.1-2.5-1.1-4c0-1.5,0.4-2.8,1.1-4c0.7-1.2,1.7-2.2,2.9-2.8   c1.3-0.7,2.6-1,4.2-1c1.5,0,2.9,0.3,4.2,1c1.3,0.7,2.2,1.6,2.9,2.8c0.7,1.2,1.1,2.5,1.1,4c0,1.5-0.4,2.8-1.1,4   c-0.7,1.2-1.7,2.1-2.9,2.8c-1.3,0.7-2.6,1-4.2,1C361.7,98.8,360.3,98.5,359.1,97.8z M366.3,96.1c0.9-0.5,1.6-1.2,2.1-2.1   c0.5-0.9,0.8-1.9,0.8-3c0-1.1-0.3-2.1-0.8-3c-0.5-0.9-1.2-1.6-2.1-2.1s-1.9-0.8-3-0.8c-1.1,0-2.1,0.3-3.1,0.8   c-0.9,0.5-1.6,1.2-2.2,2.1c-0.5,0.9-0.8,1.9-0.8,3c0,1.1,0.3,2.1,0.8,3c0.5,0.9,1.2,1.6,2.2,2.1c0.9,0.5,1.9,0.8,3.1,0.8   C364.4,96.9,365.4,96.6,366.3,96.1z"/>
	<path class="st3" d="M385.5,82.3v16.3h-2v-1.8c-0.5,0.7-1.1,1.1-1.8,1.5c-0.7,0.3-1.5,0.5-2.4,0.5c-1.1,0-2.1-0.3-3-0.8   s-1.6-1.2-2.1-2.1c-0.5-0.9-0.8-1.9-0.8-3.1c0-1.2,0.3-2.2,0.8-3.1c0.5-0.9,1.2-1.6,2.1-2.1s1.9-0.8,3-0.8c0.8,0,1.6,0.2,2.3,0.5   s1.3,0.8,1.8,1.4v-6.4L385.5,82.3L385.5,82.3z M381.5,96.4c0.6-0.3,1.1-0.8,1.4-1.5c0.3-0.6,0.5-1.3,0.5-2.2s-0.2-1.5-0.5-2.1   s-0.8-1.1-1.4-1.4s-1.3-0.5-2-0.5c-0.8,0-1.4,0.2-2,0.5c-0.6,0.3-1.1,0.8-1.4,1.4s-0.5,1.3-0.5,2.1s0.2,1.5,0.5,2.2   c0.3,0.6,0.8,1.1,1.4,1.5c0.6,0.3,1.3,0.5,2,0.5C380.2,97,380.9,96.8,381.5,96.4z"/>
	<path class="st3" d="M400,93.2l-2.4,2.2v3.2h-2.1V82.3h2.1v10.5l6.4-5.8h2.5l-4.9,4.8l5.4,6.8h-2.6L400,93.2z"/>
	<path class="st3" d="M416.7,88.1c0.9,0.8,1.3,2,1.3,3.5v7h-2v-1.5c-0.4,0.5-0.9,1-1.5,1.2s-1.4,0.4-2.3,0.4c-1.3,0-2.4-0.3-3.1-0.9   c-0.8-0.6-1.2-1.5-1.2-2.5c0-1,0.4-1.9,1.1-2.5c0.8-0.6,1.9-0.9,3.6-0.9h3.3v-0.4c0-0.9-0.3-1.6-0.8-2.1c-0.5-0.5-1.3-0.7-2.3-0.7   c-0.7,0-1.4,0.1-2,0.3c-0.7,0.2-1.2,0.5-1.7,0.9l-0.9-1.6c0.6-0.5,1.3-0.8,2.2-1.1s1.7-0.4,2.7-0.4   C414.6,86.9,415.8,87.3,416.7,88.1z M414.6,96.6c0.6-0.4,1-0.9,1.3-1.5v-1.6h-3.3c-1.8,0-2.7,0.6-2.7,1.8c0,0.6,0.2,1.1,0.7,1.4   c0.5,0.3,1.1,0.5,1.9,0.5S414,97,414.6,96.6z"/>
	<path class="st3" d="M431.1,87.6c0.9,0.5,1.6,1.2,2.1,2.1c0.5,0.9,0.8,1.9,0.8,3.1c0,1.2-0.3,2.2-0.8,3.1c-0.5,0.9-1.2,1.6-2.1,2.1   c-0.9,0.5-1.9,0.8-3,0.8c-0.9,0-1.7-0.2-2.4-0.5c-0.7-0.3-1.3-0.8-1.8-1.5v1.8h-2V82.3h2.1v6.4c0.5-0.6,1.1-1.1,1.8-1.4   s1.5-0.5,2.3-0.5C429.2,86.9,430.2,87.2,431.1,87.6z M429.9,96.4c0.6-0.3,1.1-0.8,1.4-1.5c0.3-0.6,0.5-1.3,0.5-2.2   s-0.2-1.5-0.5-2.1c-0.4-0.6-0.8-1.1-1.4-1.4c-0.6-0.3-1.3-0.5-2-0.5c-0.7,0-1.4,0.2-2,0.5c-0.6,0.3-1.1,0.8-1.4,1.4   S424,92,424,92.8s0.2,1.5,0.5,2.2c0.3,0.6,0.8,1.1,1.4,1.5c0.6,0.3,1.3,0.5,2,0.5C428.7,97,429.3,96.8,429.9,96.4z"/>
	<path class="st3" d="M447.4,93.5h-9.5c0.1,1,0.6,1.9,1.4,2.5c0.8,0.6,1.7,0.9,2.9,0.9c1.4,0,2.5-0.5,3.4-1.4l1.2,1.4   c-0.5,0.6-1.2,1.1-2,1.4c-0.8,0.3-1.7,0.5-2.6,0.5c-1.2,0-2.3-0.3-3.3-0.8s-1.7-1.2-2.2-2.1c-0.5-0.9-0.8-1.9-0.8-3.1   c0-1.1,0.3-2.2,0.8-3.1c0.5-0.9,1.2-1.6,2.1-2.1c0.9-0.5,1.9-0.8,3-0.8s2.1,0.3,3,0.8c0.9,0.5,1.5,1.2,2,2.1c0.5,0.9,0.7,2,0.7,3.1   C447.5,93.1,447.4,93.3,447.4,93.5z M439.1,89.6c-0.7,0.6-1.1,1.4-1.2,2.4h7.5c-0.1-1-0.5-1.8-1.2-2.4c-0.7-0.6-1.5-0.9-2.5-0.9   S439.8,89,439.1,89.6z"/>
	<path class="st3" d="M450.4,82.3h2.1v16.3h-2.1V82.3z"/>
	<path class="st3" d="M461,93.2l-2.4,2.2v3.2h-2.1V82.3h2.1v10.5L465,87h2.6l-4.9,4.8l5.4,6.8h-2.6L461,93.2z"/>
	<path class="st3" d="M479.8,87l-5.7,12.8c-0.5,1.2-1.1,2-1.8,2.5c-0.7,0.5-1.5,0.7-2.4,0.7c-0.6,0-1.1-0.1-1.7-0.3   c-0.5-0.2-1-0.4-1.3-0.8l0.9-1.6c0.6,0.6,1.3,0.9,2.1,0.9c0.5,0,0.9-0.1,1.3-0.4c0.3-0.3,0.7-0.7,0.9-1.4l0.4-0.8L467.4,87h2.2   l4.1,9.3l4-9.3L479.8,87L479.8,87z"/>
	<path class="st3" d="M496.9,87.6c0.9,0.5,1.6,1.2,2.1,2.1c0.5,0.9,0.8,1.9,0.8,3.1c0,1.2-0.3,2.2-0.8,3.1c-0.5,0.9-1.2,1.6-2.1,2.1   c-0.9,0.5-1.9,0.8-3,0.8c-0.8,0-1.6-0.2-2.3-0.5c-0.7-0.3-1.3-0.8-1.8-1.4v6h-2.1V87h2v1.8c0.5-0.7,1.1-1.1,1.8-1.5   s1.5-0.5,2.4-0.5C495,86.9,496,87.2,496.9,87.6z M495.7,96.4c0.6-0.3,1.1-0.8,1.4-1.5c0.3-0.6,0.5-1.3,0.5-2.2s-0.2-1.5-0.5-2.1   c-0.3-0.6-0.8-1.1-1.4-1.4c-0.6-0.3-1.3-0.5-2-0.5c-0.7,0-1.4,0.2-2,0.5c-0.6,0.3-1.1,0.8-1.4,1.4c-0.3,0.6-0.5,1.3-0.5,2.1   s0.2,1.5,0.5,2.2c0.3,0.6,0.8,1.1,1.4,1.5c0.6,0.3,1.3,0.5,2,0.5C494.4,97,495.1,96.8,495.7,96.4z"/>
	<path class="st3" d="M504.5,98c-0.9-0.5-1.6-1.2-2.2-2.1c-0.5-0.9-0.8-1.9-0.8-3.1c0-1.1,0.3-2.2,0.8-3.1c0.5-0.9,1.2-1.6,2.2-2.1   s2-0.8,3.1-0.8s2.2,0.3,3.1,0.8c0.9,0.5,1.6,1.2,2.2,2.1c0.5,0.9,0.8,1.9,0.8,3.1c0,1.1-0.3,2.2-0.8,3.1c-0.5,0.9-1.2,1.6-2.2,2.1   s-2,0.8-3.1,0.8C506.5,98.8,505.5,98.5,504.5,98z M509.7,96.4c0.6-0.3,1.1-0.8,1.4-1.5c0.3-0.6,0.5-1.3,0.5-2.2s-0.2-1.5-0.5-2.1   s-0.8-1.1-1.4-1.4c-0.6-0.3-1.3-0.5-2-0.5s-1.4,0.2-2,0.5c-0.6,0.3-1.1,0.8-1.4,1.4c-0.3,0.6-0.5,1.3-0.5,2.1s0.2,1.5,0.5,2.2   c0.3,0.6,0.8,1.1,1.4,1.5c0.6,0.3,1.3,0.5,2,0.5S509.1,96.8,509.7,96.4z"/>
	<path class="st3" d="M531.8,87.6c0.9,0.5,1.6,1.2,2.1,2.1c0.5,0.9,0.8,1.9,0.8,3.1c0,1.2-0.3,2.2-0.8,3.1c-0.5,0.9-1.2,1.6-2.1,2.1   c-0.9,0.5-1.9,0.8-3,0.8c-0.8,0-1.6-0.2-2.3-0.5s-1.3-0.8-1.8-1.4v6h-2.1V87h2v1.8c0.5-0.7,1.1-1.1,1.8-1.5s1.5-0.5,2.4-0.5   C529.9,86.9,530.9,87.2,531.8,87.6z M530.6,96.4c0.6-0.3,1.1-0.8,1.4-1.5c0.3-0.6,0.5-1.3,0.5-2.2s-0.2-1.5-0.5-2.1   c-0.3-0.6-0.8-1.1-1.4-1.4c-0.6-0.3-1.3-0.5-2-0.5c-0.7,0-1.4,0.2-2,0.5c-0.6,0.3-1.1,0.8-1.4,1.4c-0.3,0.6-0.5,1.3-0.5,2.1   s0.2,1.5,0.5,2.2c0.3,0.6,0.8,1.1,1.4,1.5c0.6,0.3,1.3,0.5,2,0.5C529.3,97,530,96.8,530.6,96.4z"/>
	<path class="st3" d="M545.4,88.1c0.9,0.8,1.3,2,1.3,3.5v7h-2v-1.5c-0.3,0.5-0.8,1-1.5,1.2c-0.7,0.3-1.4,0.4-2.3,0.4   c-1.3,0-2.3-0.3-3.1-0.9c-0.8-0.6-1.2-1.5-1.2-2.5c0-1,0.4-1.9,1.1-2.5c0.8-0.6,1.9-0.9,3.6-0.9h3.3v-0.4c0-0.9-0.3-1.6-0.8-2.1   c-0.5-0.5-1.3-0.7-2.3-0.7c-0.7,0-1.4,0.1-2,0.3c-0.7,0.2-1.2,0.5-1.7,0.9l-0.9-1.6c0.6-0.5,1.3-0.8,2.2-1.1s1.7-0.4,2.7-0.4   C543.3,86.9,544.5,87.3,545.4,88.1z M543.3,96.6c0.6-0.4,1-0.9,1.3-1.5v-1.6h-3.3c-1.8,0-2.7,0.6-2.7,1.8c0,0.6,0.2,1.1,0.7,1.4   c0.5,0.3,1.1,0.5,1.9,0.5S542.7,97,543.3,96.6z"/>
	<path class="st3" d="M554.3,87.4c0.7-0.3,1.6-0.5,2.6-0.5v2.1c-0.1,0-0.3,0-0.5,0c-1.1,0-2,0.3-2.7,1c-0.7,0.7-1,1.7-1,2.9v5.8   h-2.1V87h2v2C553,88.3,553.5,87.8,554.3,87.4z"/>
	<path class="st3" d="M562,86v1h3.4v1.7h-3.3v9.9h-2.1v-9.9h-2V87h2v-1c0-1.2,0.3-2.1,1-2.8s1.6-1,2.8-1c0.5,0,0.9,0.1,1.3,0.2   c0.4,0.1,0.8,0.3,1.1,0.5l-0.6,1.6c-0.5-0.4-1-0.6-1.6-0.6C562.6,84,562,84.6,562,86z"/>
	<path class="st3" d="M577.7,93.5h-9.5c0.1,1,0.6,1.9,1.3,2.5c0.8,0.6,1.7,0.9,2.9,0.9c1.4,0,2.5-0.5,3.4-1.4l1.2,1.4   c-0.5,0.6-1.2,1.1-2,1.4c-0.8,0.3-1.7,0.5-2.6,0.5c-1.2,0-2.3-0.3-3.3-0.8s-1.7-1.2-2.2-2.1c-0.5-0.9-0.8-1.9-0.8-3.1   c0-1.1,0.3-2.2,0.8-3.1c0.5-0.9,1.2-1.6,2.1-2.1c0.9-0.5,1.9-0.8,3-0.8s2.1,0.3,3,0.8s1.5,1.2,2,2.1c0.5,0.9,0.7,2,0.7,3.1   C577.8,93.1,577.7,93.3,577.7,93.5z M569.5,89.6c-0.7,0.6-1.1,1.4-1.2,2.4h7.5c-0.1-1-0.5-1.8-1.2-2.4s-1.5-0.9-2.5-0.9   C571,88.7,570.1,89,569.5,89.6z M573.3,82.5h2.7l-3.7,2.9h-2L573.3,82.5z"/>
	<path class="st3" d="M598.8,88.2c0.9,0.9,1.3,2.1,1.3,3.8v6.7h-2.1v-6.5c0-1.1-0.3-2-0.8-2.6s-1.3-0.9-2.2-0.9   c-1.1,0-1.9,0.3-2.5,1s-1,1.6-1,2.9v6h-2.1v-6.5c0-1.1-0.3-2-0.8-2.6s-1.3-0.9-2.2-0.9c-1.1,0-1.9,0.3-2.5,1s-1,1.6-1,2.9v6h-2.1   V87h2v1.7c0.4-0.6,1-1.1,1.7-1.4s1.5-0.5,2.3-0.5c0.9,0,1.7,0.2,2.4,0.6s1.3,0.9,1.6,1.6c0.4-0.7,1-1.2,1.8-1.6   c0.8-0.4,1.7-0.6,2.7-0.6C596.7,86.9,597.9,87.3,598.8,88.2z"/>
</g>
</svg>